<mxfile host="app.diagrams.net" agent="Mozilla/5.0 (Windows NT 10.0; Win64; x64) AppleWebKit/537.36 (KHTML, like Gecko) Chrome/136.0.0.0 Safari/537.36 Edg/136.0.0.0" version="27.0.3">
  <diagram name="Page-1" id="QIjYvYamp6bZTH-5qKXn">
    <mxGraphModel dx="1463" dy="1757" grid="1" gridSize="10" guides="1" tooltips="1" connect="1" arrows="1" fold="1" page="1" pageScale="1" pageWidth="1100" pageHeight="850" math="0" shadow="0">
      <root>
        <mxCell id="0" />
        <mxCell id="1" parent="0" />
        <mxCell id="itmRVCsg2-wjGknnskHY-182" value="" style="group" parent="1" vertex="1" connectable="0">
          <mxGeometry x="20" y="110" width="1050" height="690" as="geometry" />
        </mxCell>
        <mxCell id="_UddgJi90F-jok4KW_XF-78" value="" style="ellipse;whiteSpace=wrap;html=1;" parent="itmRVCsg2-wjGknnskHY-182" vertex="1">
          <mxGeometry x="486.3970588235294" y="228.76510067114094" width="108.08823529411764" height="92.61744966442956" as="geometry" />
        </mxCell>
        <mxCell id="_UddgJi90F-jok4KW_XF-77" value="" style="ellipse;whiteSpace=wrap;html=1;" parent="itmRVCsg2-wjGknnskHY-182" vertex="1">
          <mxGeometry x="810.6617647058823" y="282.48322147651015" width="108.08823529411764" height="92.61744966442956" as="geometry" />
        </mxCell>
        <mxCell id="_UddgJi90F-jok4KW_XF-8" style="edgeStyle=orthogonalEdgeStyle;rounded=0;orthogonalLoop=1;jettySize=auto;html=1;exitX=0.75;exitY=0;exitDx=0;exitDy=0;entryX=0;entryY=1;entryDx=0;entryDy=0;" parent="itmRVCsg2-wjGknnskHY-182" source="_UddgJi90F-jok4KW_XF-1" edge="1">
          <mxGeometry relative="1" as="geometry">
            <mxPoint x="484.52372998915257" y="91.02838545066922" as="targetPoint" />
            <mxPoint x="424.91029411764697" y="101.87919463087248" as="sourcePoint" />
          </mxGeometry>
        </mxCell>
        <mxCell id="_UddgJi90F-jok4KW_XF-11" style="edgeStyle=orthogonalEdgeStyle;rounded=0;orthogonalLoop=1;jettySize=auto;html=1;exitX=0;exitY=0;exitDx=0;exitDy=0;entryX=0.99;entryY=0.695;entryDx=0;entryDy=0;entryPerimeter=0;" parent="itmRVCsg2-wjGknnskHY-182" source="_UddgJi90F-jok4KW_XF-1" target="_UddgJi90F-jok4KW_XF-4" edge="1">
          <mxGeometry relative="1" as="geometry">
            <mxPoint x="316.5441176470588" y="120.4026845637584" as="targetPoint" />
            <Array as="points">
              <mxPoint x="362.86764705882354" y="138.92617449664434" />
              <mxPoint x="362.86764705882354" y="111.14093959731544" />
              <mxPoint x="331.2132352941176" y="111.14093959731544" />
            </Array>
          </mxGeometry>
        </mxCell>
        <mxCell id="itmRVCsg2-wjGknnskHY-62" value="" style="edgeStyle=orthogonalEdgeStyle;rounded=0;orthogonalLoop=1;jettySize=auto;html=1;endArrow=none;startFill=0;" parent="itmRVCsg2-wjGknnskHY-182" source="_UddgJi90F-jok4KW_XF-1" target="_UddgJi90F-jok4KW_XF-75" edge="1">
          <mxGeometry relative="1" as="geometry" />
        </mxCell>
        <mxCell id="itmRVCsg2-wjGknnskHY-140" style="edgeStyle=orthogonalEdgeStyle;rounded=0;orthogonalLoop=1;jettySize=auto;html=1;exitX=0.75;exitY=1;exitDx=0;exitDy=0;entryX=0.5;entryY=0;entryDx=0;entryDy=0;endArrow=none;startFill=0;" parent="itmRVCsg2-wjGknnskHY-182" source="_UddgJi90F-jok4KW_XF-1" target="itmRVCsg2-wjGknnskHY-60" edge="1">
          <mxGeometry relative="1" as="geometry">
            <mxPoint x="432.35294117647055" y="305.63758389261744" as="targetPoint" />
          </mxGeometry>
        </mxCell>
        <mxCell id="itmRVCsg2-wjGknnskHY-150" style="edgeStyle=orthogonalEdgeStyle;rounded=0;orthogonalLoop=1;jettySize=auto;html=1;exitX=0.5;exitY=1;exitDx=0;exitDy=0;entryX=1;entryY=0.5;entryDx=0;entryDy=0;" parent="itmRVCsg2-wjGknnskHY-182" source="_UddgJi90F-jok4KW_XF-1" target="_UddgJi90F-jok4KW_XF-5" edge="1">
          <mxGeometry relative="1" as="geometry">
            <Array as="points">
              <mxPoint x="401.4705882352941" y="275.07382550335575" />
            </Array>
          </mxGeometry>
        </mxCell>
        <mxCell id="itmRVCsg2-wjGknnskHY-151" value="" style="edgeStyle=orthogonalEdgeStyle;rounded=0;orthogonalLoop=1;jettySize=auto;html=1;" parent="itmRVCsg2-wjGknnskHY-182" source="_UddgJi90F-jok4KW_XF-1" target="itmRVCsg2-wjGknnskHY-149" edge="1">
          <mxGeometry relative="1" as="geometry" />
        </mxCell>
        <mxCell id="_UddgJi90F-jok4KW_XF-1" value="Customer" style="rounded=0;whiteSpace=wrap;html=1;" parent="itmRVCsg2-wjGknnskHY-182" vertex="1">
          <mxGeometry x="355.1470588235294" y="138.92617449664434" width="92.6470588235294" height="55.57046979865772" as="geometry" />
        </mxCell>
        <mxCell id="_UddgJi90F-jok4KW_XF-2" value="Name" style="ellipse;whiteSpace=wrap;html=1;" parent="itmRVCsg2-wjGknnskHY-182" vertex="1">
          <mxGeometry x="455.5147058823529" y="18.523489932885912" width="92.6470588235294" height="74.09395973154365" as="geometry" />
        </mxCell>
        <mxCell id="_UddgJi90F-jok4KW_XF-3" value="Age" style="ellipse;whiteSpace=wrap;html=1;" parent="itmRVCsg2-wjGknnskHY-182" vertex="1">
          <mxGeometry x="347.42647058823525" y="9.261744966442956" width="92.6470588235294" height="74.09395973154365" as="geometry" />
        </mxCell>
        <mxCell id="_UddgJi90F-jok4KW_XF-4" value="Gender" style="ellipse;whiteSpace=wrap;html=1;" parent="itmRVCsg2-wjGknnskHY-182" vertex="1">
          <mxGeometry x="239.33823529411762" y="9.261744966442956" width="92.6470588235294" height="74.09395973154365" as="geometry" />
        </mxCell>
        <mxCell id="_UddgJi90F-jok4KW_XF-5" value="&lt;u&gt;Mobile&lt;/u&gt;" style="ellipse;whiteSpace=wrap;html=1;" parent="itmRVCsg2-wjGknnskHY-182" vertex="1">
          <mxGeometry x="293.38235294117646" y="238.02684563758393" width="92.6470588235294" height="74.09395973154365" as="geometry" />
        </mxCell>
        <mxCell id="_UddgJi90F-jok4KW_XF-6" value="Email" style="ellipse;whiteSpace=wrap;html=1;" parent="itmRVCsg2-wjGknnskHY-182" vertex="1">
          <mxGeometry x="347.42647058823525" y="301.006711409396" width="92.6470588235294" height="74.09395973154365" as="geometry" />
        </mxCell>
        <mxCell id="_UddgJi90F-jok4KW_XF-7" style="edgeStyle=orthogonalEdgeStyle;rounded=0;orthogonalLoop=1;jettySize=auto;html=1;entryX=0.5;entryY=1;entryDx=0;entryDy=0;" parent="itmRVCsg2-wjGknnskHY-182" source="_UddgJi90F-jok4KW_XF-1" target="_UddgJi90F-jok4KW_XF-3" edge="1">
          <mxGeometry relative="1" as="geometry">
            <mxPoint x="386.02941176470586" y="111.14093959731544" as="targetPoint" />
          </mxGeometry>
        </mxCell>
        <mxCell id="_UddgJi90F-jok4KW_XF-9" style="edgeStyle=orthogonalEdgeStyle;rounded=0;orthogonalLoop=1;jettySize=auto;html=1;entryX=0.76;entryY=0.04;entryDx=0;entryDy=0;entryPerimeter=0;" parent="itmRVCsg2-wjGknnskHY-182" source="_UddgJi90F-jok4KW_XF-1" target="_UddgJi90F-jok4KW_XF-6" edge="1">
          <mxGeometry relative="1" as="geometry">
            <Array as="points">
              <mxPoint x="416.9117647058823" y="231.54362416107386" />
              <mxPoint x="417.68382352941177" y="231.54362416107386" />
            </Array>
          </mxGeometry>
        </mxCell>
        <mxCell id="_UddgJi90F-jok4KW_XF-59" style="edgeStyle=orthogonalEdgeStyle;rounded=0;orthogonalLoop=1;jettySize=auto;html=1;exitX=0.75;exitY=0;exitDx=0;exitDy=0;" parent="itmRVCsg2-wjGknnskHY-182" source="_UddgJi90F-jok4KW_XF-12" target="_UddgJi90F-jok4KW_XF-49" edge="1">
          <mxGeometry relative="1" as="geometry" />
        </mxCell>
        <mxCell id="_UddgJi90F-jok4KW_XF-60" style="edgeStyle=orthogonalEdgeStyle;rounded=0;orthogonalLoop=1;jettySize=auto;html=1;exitX=0.564;exitY=1.042;exitDx=0;exitDy=0;entryX=0.5;entryY=0;entryDx=0;entryDy=0;exitPerimeter=0;endArrow=none;startFill=0;" parent="itmRVCsg2-wjGknnskHY-182" source="_UddgJi90F-jok4KW_XF-12" target="_UddgJi90F-jok4KW_XF-68" edge="1">
          <mxGeometry relative="1" as="geometry">
            <Array as="points">
              <mxPoint x="663.1985294117646" y="189.8657718120806" />
              <mxPoint x="663.9705882352941" y="236.17449664429532" />
              <mxPoint x="633.0882352941176" y="236.17449664429532" />
            </Array>
          </mxGeometry>
        </mxCell>
        <mxCell id="itmRVCsg2-wjGknnskHY-172" style="edgeStyle=orthogonalEdgeStyle;rounded=0;orthogonalLoop=1;jettySize=auto;html=1;exitX=0.75;exitY=1;exitDx=0;exitDy=0;entryX=0;entryY=0;entryDx=0;entryDy=0;" parent="itmRVCsg2-wjGknnskHY-182" source="_UddgJi90F-jok4KW_XF-12" target="_UddgJi90F-jok4KW_XF-14" edge="1">
          <mxGeometry relative="1" as="geometry" />
        </mxCell>
        <mxCell id="_UddgJi90F-jok4KW_XF-12" value="Restaurant" style="rounded=0;whiteSpace=wrap;html=1;" parent="itmRVCsg2-wjGknnskHY-182" vertex="1">
          <mxGeometry x="602.2058823529411" y="134.29530201342286" width="108.08823529411764" height="55.57046979865772" as="geometry" />
        </mxCell>
        <mxCell id="_UddgJi90F-jok4KW_XF-13" value="Restaurant Name" style="ellipse;whiteSpace=wrap;html=1;" parent="itmRVCsg2-wjGknnskHY-182" vertex="1">
          <mxGeometry x="694.8529411764705" y="23.15436241610739" width="92.6470588235294" height="74.09395973154365" as="geometry" />
        </mxCell>
        <mxCell id="_UddgJi90F-jok4KW_XF-14" value="Distance" style="ellipse;whiteSpace=wrap;html=1;" parent="itmRVCsg2-wjGknnskHY-182" vertex="1">
          <mxGeometry x="671.6911764705882" y="238.02684563758393" width="92.6470588235294" height="74.09395973154365" as="geometry" />
        </mxCell>
        <mxCell id="_UddgJi90F-jok4KW_XF-15" value="Total Seats" style="ellipse;whiteSpace=wrap;html=1;" parent="itmRVCsg2-wjGknnskHY-182" vertex="1">
          <mxGeometry x="494.1176470588234" y="238.02684563758393" width="92.6470588235294" height="74.09395973154365" as="geometry" />
        </mxCell>
        <mxCell id="_UddgJi90F-jok4KW_XF-35" style="edgeStyle=orthogonalEdgeStyle;rounded=0;orthogonalLoop=1;jettySize=auto;html=1;exitX=0.25;exitY=1;exitDx=0;exitDy=0;entryX=1;entryY=0.5;entryDx=0;entryDy=0;" parent="itmRVCsg2-wjGknnskHY-182" source="_UddgJi90F-jok4KW_XF-16" target="_UddgJi90F-jok4KW_XF-19" edge="1">
          <mxGeometry relative="1" as="geometry">
            <mxPoint x="563.6029411764705" y="541.8120805369128" as="sourcePoint" />
          </mxGeometry>
        </mxCell>
        <mxCell id="_UddgJi90F-jok4KW_XF-16" value="Location" style="rounded=0;whiteSpace=wrap;html=1;dashed=1;" parent="itmRVCsg2-wjGknnskHY-182" vertex="1">
          <mxGeometry x="525" y="412.1476510067114" width="92.6470588235294" height="55.57046979865772" as="geometry" />
        </mxCell>
        <mxCell id="_UddgJi90F-jok4KW_XF-17" value="latitude" style="ellipse;whiteSpace=wrap;html=1;" parent="itmRVCsg2-wjGknnskHY-182" vertex="1">
          <mxGeometry x="571.3235294117646" y="514.026845637584" width="92.6470588235294" height="74.09395973154365" as="geometry" />
        </mxCell>
        <mxCell id="_UddgJi90F-jok4KW_XF-18" value="longitude" style="ellipse;whiteSpace=wrap;html=1;" parent="itmRVCsg2-wjGknnskHY-182" vertex="1">
          <mxGeometry x="633.0882352941176" y="412.1476510067114" width="92.6470588235294" height="74.09395973154365" as="geometry" />
        </mxCell>
        <mxCell id="_UddgJi90F-jok4KW_XF-25" style="edgeStyle=orthogonalEdgeStyle;rounded=0;orthogonalLoop=1;jettySize=auto;html=1;entryX=1;entryY=0.5;entryDx=0;entryDy=0;" parent="itmRVCsg2-wjGknnskHY-182" target="_UddgJi90F-jok4KW_XF-20" edge="1">
          <mxGeometry relative="1" as="geometry">
            <mxPoint x="478.67647058823525" y="486.24161073825496" as="targetPoint" />
            <mxPoint x="478.67647058823525" y="504.765100671141" as="sourcePoint" />
            <Array as="points">
              <mxPoint x="478.67647058823525" y="486.24161073825496" />
            </Array>
          </mxGeometry>
        </mxCell>
        <mxCell id="_UddgJi90F-jok4KW_XF-27" style="edgeStyle=orthogonalEdgeStyle;rounded=0;orthogonalLoop=1;jettySize=auto;html=1;exitX=0;exitY=0.5;exitDx=0;exitDy=0;" parent="itmRVCsg2-wjGknnskHY-182" source="_UddgJi90F-jok4KW_XF-19" target="_UddgJi90F-jok4KW_XF-22" edge="1">
          <mxGeometry relative="1" as="geometry" />
        </mxCell>
        <mxCell id="_UddgJi90F-jok4KW_XF-28" style="edgeStyle=orthogonalEdgeStyle;rounded=0;orthogonalLoop=1;jettySize=auto;html=1;exitX=0;exitY=1;exitDx=0;exitDy=0;entryX=1;entryY=0;entryDx=0;entryDy=0;" parent="itmRVCsg2-wjGknnskHY-182" source="_UddgJi90F-jok4KW_XF-19" target="_UddgJi90F-jok4KW_XF-23" edge="1">
          <mxGeometry relative="1" as="geometry">
            <Array as="points">
              <mxPoint x="433.8970588235294" y="577.006711409396" />
            </Array>
          </mxGeometry>
        </mxCell>
        <mxCell id="_UddgJi90F-jok4KW_XF-29" style="edgeStyle=orthogonalEdgeStyle;rounded=0;orthogonalLoop=1;jettySize=auto;html=1;exitX=1;exitY=1;exitDx=0;exitDy=0;entryX=0.575;entryY=-0.045;entryDx=0;entryDy=0;entryPerimeter=0;" parent="itmRVCsg2-wjGknnskHY-182" source="_UddgJi90F-jok4KW_XF-19" edge="1">
          <mxGeometry relative="1" as="geometry">
            <mxPoint x="520.3676470588234" y="603.3100671140942" as="targetPoint" />
          </mxGeometry>
        </mxCell>
        <mxCell id="_UddgJi90F-jok4KW_XF-19" value="Address" style="ellipse;whiteSpace=wrap;html=1;" parent="itmRVCsg2-wjGknnskHY-182" vertex="1">
          <mxGeometry x="440.0735294117647" y="514.026845637584" width="92.6470588235294" height="74.09395973154365" as="geometry" />
        </mxCell>
        <mxCell id="_UddgJi90F-jok4KW_XF-20" value="Door No." style="ellipse;whiteSpace=wrap;html=1;" parent="itmRVCsg2-wjGknnskHY-182" vertex="1">
          <mxGeometry x="362.86764705882354" y="449.19463087248323" width="92.6470588235294" height="74.09395973154365" as="geometry" />
        </mxCell>
        <mxCell id="_UddgJi90F-jok4KW_XF-21" value="Pincode" style="ellipse;whiteSpace=wrap;html=1;" parent="itmRVCsg2-wjGknnskHY-182" vertex="1">
          <mxGeometry x="486.3970588235294" y="599.2348993288591" width="92.6470588235294" height="74.09395973154365" as="geometry" />
        </mxCell>
        <mxCell id="_UddgJi90F-jok4KW_XF-22" value="Street" style="ellipse;whiteSpace=wrap;html=1;" parent="itmRVCsg2-wjGknnskHY-182" vertex="1">
          <mxGeometry x="285.6617647058823" y="537.1812080536914" width="92.6470588235294" height="74.09395973154365" as="geometry" />
        </mxCell>
        <mxCell id="_UddgJi90F-jok4KW_XF-23" value="City" style="ellipse;whiteSpace=wrap;html=1;" parent="itmRVCsg2-wjGknnskHY-182" vertex="1">
          <mxGeometry x="355.1470588235294" y="597.3825503355706" width="92.6470588235294" height="74.09395973154365" as="geometry" />
        </mxCell>
        <mxCell id="_UddgJi90F-jok4KW_XF-32" style="edgeStyle=orthogonalEdgeStyle;rounded=0;orthogonalLoop=1;jettySize=auto;html=1;entryX=0.407;entryY=-0.035;entryDx=0;entryDy=0;entryPerimeter=0;" parent="itmRVCsg2-wjGknnskHY-182" target="_UddgJi90F-jok4KW_XF-17" edge="1">
          <mxGeometry relative="1" as="geometry">
            <mxPoint x="586.7647058823529" y="467.7181208053692" as="sourcePoint" />
            <Array as="points">
              <mxPoint x="586.7647058823529" y="500.13422818791946" />
              <mxPoint x="609.1544117647059" y="500.13422818791946" />
            </Array>
          </mxGeometry>
        </mxCell>
        <mxCell id="_UddgJi90F-jok4KW_XF-34" style="edgeStyle=orthogonalEdgeStyle;rounded=0;orthogonalLoop=1;jettySize=auto;html=1;exitX=1;exitY=0.25;exitDx=0;exitDy=0;entryX=0.32;entryY=-0.005;entryDx=0;entryDy=0;entryPerimeter=0;" parent="itmRVCsg2-wjGknnskHY-182" source="_UddgJi90F-jok4KW_XF-16" target="_UddgJi90F-jok4KW_XF-18" edge="1">
          <mxGeometry relative="1" as="geometry" />
        </mxCell>
        <mxCell id="_UddgJi90F-jok4KW_XF-45" style="edgeStyle=orthogonalEdgeStyle;rounded=0;orthogonalLoop=1;jettySize=auto;html=1;exitX=0.5;exitY=1;exitDx=0;exitDy=0;entryX=0;entryY=0.5;entryDx=0;entryDy=0;" parent="itmRVCsg2-wjGknnskHY-182" source="_UddgJi90F-jok4KW_XF-37" target="_UddgJi90F-jok4KW_XF-38" edge="1">
          <mxGeometry relative="1" as="geometry">
            <mxPoint x="802.9411764705882" y="273.2214765100672" as="sourcePoint" />
          </mxGeometry>
        </mxCell>
        <mxCell id="_UddgJi90F-jok4KW_XF-37" value="Time Slots" style="rounded=0;whiteSpace=wrap;html=1;" parent="itmRVCsg2-wjGknnskHY-182" vertex="1">
          <mxGeometry x="818.3823529411764" y="166.71140939597316" width="92.6470588235294" height="55.57046979865772" as="geometry" />
        </mxCell>
        <mxCell id="_UddgJi90F-jok4KW_XF-42" style="edgeStyle=orthogonalEdgeStyle;rounded=0;orthogonalLoop=1;jettySize=auto;html=1;exitX=1;exitY=0.5;exitDx=0;exitDy=0;entryX=0;entryY=0.5;entryDx=0;entryDy=0;" parent="itmRVCsg2-wjGknnskHY-182" source="_UddgJi90F-jok4KW_XF-38" target="_UddgJi90F-jok4KW_XF-40" edge="1">
          <mxGeometry relative="1" as="geometry" />
        </mxCell>
        <mxCell id="_UddgJi90F-jok4KW_XF-38" value="Bookings" style="ellipse;whiteSpace=wrap;html=1;" parent="itmRVCsg2-wjGknnskHY-182" vertex="1">
          <mxGeometry x="818.3823529411764" y="291.7449664429531" width="92.6470588235294" height="74.09395973154365" as="geometry" />
        </mxCell>
        <mxCell id="_UddgJi90F-jok4KW_XF-39" value="Time" style="ellipse;whiteSpace=wrap;html=1;" parent="itmRVCsg2-wjGknnskHY-182" vertex="1">
          <mxGeometry x="934.1911764705883" y="111.14093959731544" width="92.6470588235294" height="74.09395973154365" as="geometry" />
        </mxCell>
        <mxCell id="_UddgJi90F-jok4KW_XF-40" value="Date" style="ellipse;whiteSpace=wrap;html=1;" parent="itmRVCsg2-wjGknnskHY-182" vertex="1">
          <mxGeometry x="941.9117647058822" y="263.95973154362423" width="92.6470588235294" height="74.09395973154365" as="geometry" />
        </mxCell>
        <mxCell id="_UddgJi90F-jok4KW_XF-41" value="Booked Seats" style="ellipse;whiteSpace=wrap;html=1;" parent="itmRVCsg2-wjGknnskHY-182" vertex="1">
          <mxGeometry x="911.0294117647059" y="365.83892617449675" width="92.6470588235294" height="74.09395973154365" as="geometry" />
        </mxCell>
        <mxCell id="_UddgJi90F-jok4KW_XF-43" style="edgeStyle=orthogonalEdgeStyle;rounded=0;orthogonalLoop=1;jettySize=auto;html=1;exitX=0.5;exitY=1;exitDx=0;exitDy=0;entryX=-0.007;entryY=0.59;entryDx=0;entryDy=0;entryPerimeter=0;" parent="itmRVCsg2-wjGknnskHY-182" source="_UddgJi90F-jok4KW_XF-38" target="_UddgJi90F-jok4KW_XF-41" edge="1">
          <mxGeometry relative="1" as="geometry" />
        </mxCell>
        <mxCell id="_UddgJi90F-jok4KW_XF-44" style="edgeStyle=orthogonalEdgeStyle;rounded=0;orthogonalLoop=1;jettySize=auto;html=1;exitX=1;exitY=0.5;exitDx=0;exitDy=0;entryX=0.02;entryY=0.64;entryDx=0;entryDy=0;entryPerimeter=0;" parent="itmRVCsg2-wjGknnskHY-182" source="_UddgJi90F-jok4KW_XF-37" target="_UddgJi90F-jok4KW_XF-39" edge="1">
          <mxGeometry relative="1" as="geometry" />
        </mxCell>
        <mxCell id="_UddgJi90F-jok4KW_XF-47" style="edgeStyle=orthogonalEdgeStyle;rounded=0;orthogonalLoop=1;jettySize=auto;html=1;entryX=0.02;entryY=0.64;entryDx=0;entryDy=0;entryPerimeter=0;exitX=0.41;exitY=-0.04;exitDx=0;exitDy=0;exitPerimeter=0;" parent="itmRVCsg2-wjGknnskHY-182" source="_UddgJi90F-jok4KW_XF-37" target="_UddgJi90F-jok4KW_XF-48" edge="1">
          <mxGeometry relative="1" as="geometry">
            <mxPoint x="849.2647058823529" y="157.4496644295302" as="sourcePoint" />
          </mxGeometry>
        </mxCell>
        <mxCell id="_UddgJi90F-jok4KW_XF-48" value="Restaurant Id" style="ellipse;whiteSpace=wrap;html=1;" parent="itmRVCsg2-wjGknnskHY-182" vertex="1">
          <mxGeometry x="849.2647058823529" y="46.30872483221478" width="92.6470588235294" height="74.09395973154365" as="geometry" />
        </mxCell>
        <mxCell id="_UddgJi90F-jok4KW_XF-49" value="Restaurant Id" style="ellipse;whiteSpace=wrap;html=1;" parent="itmRVCsg2-wjGknnskHY-182" vertex="1">
          <mxGeometry x="586.7647058823529" y="13.89261744966443" width="92.6470588235294" height="74.09395973154365" as="geometry" />
        </mxCell>
        <mxCell id="_UddgJi90F-jok4KW_XF-50" value="" style="endArrow=none;dashed=1;html=1;rounded=0;" parent="itmRVCsg2-wjGknnskHY-182" edge="1">
          <mxGeometry width="50" height="50" relative="1" as="geometry">
            <mxPoint x="868.5661764705883" y="92.61744966442956" as="sourcePoint" />
            <mxPoint x="922.6102941176468" y="92.61744966442956" as="targetPoint" />
          </mxGeometry>
        </mxCell>
        <mxCell id="_UddgJi90F-jok4KW_XF-52" style="edgeStyle=orthogonalEdgeStyle;rounded=0;orthogonalLoop=1;jettySize=auto;html=1;exitX=0;exitY=0.5;exitDx=0;exitDy=0;entryX=1;entryY=0.5;entryDx=0;entryDy=0;endArrow=none;startFill=0;" parent="itmRVCsg2-wjGknnskHY-182" source="_UddgJi90F-jok4KW_XF-51" target="_UddgJi90F-jok4KW_XF-12" edge="1">
          <mxGeometry relative="1" as="geometry" />
        </mxCell>
        <mxCell id="_UddgJi90F-jok4KW_XF-55" style="edgeStyle=orthogonalEdgeStyle;rounded=0;orthogonalLoop=1;jettySize=auto;html=1;exitX=1;exitY=0.5;exitDx=0;exitDy=0;entryX=0;entryY=0.75;entryDx=0;entryDy=0;endArrow=none;startFill=0;" parent="itmRVCsg2-wjGknnskHY-182" source="_UddgJi90F-jok4KW_XF-51" target="_UddgJi90F-jok4KW_XF-37" edge="1">
          <mxGeometry relative="1" as="geometry" />
        </mxCell>
        <mxCell id="_UddgJi90F-jok4KW_XF-51" value="maintains" style="rhombus;whiteSpace=wrap;html=1;" parent="itmRVCsg2-wjGknnskHY-182" vertex="1">
          <mxGeometry x="741.1764705882352" y="152.81879194630872" width="61.76470588235293" height="74.09395973154365" as="geometry" />
        </mxCell>
        <mxCell id="_UddgJi90F-jok4KW_XF-58" style="edgeStyle=orthogonalEdgeStyle;rounded=0;orthogonalLoop=1;jettySize=auto;html=1;exitX=1;exitY=0.25;exitDx=0;exitDy=0;entryX=0.573;entryY=0.985;entryDx=0;entryDy=0;entryPerimeter=0;" parent="itmRVCsg2-wjGknnskHY-182" source="_UddgJi90F-jok4KW_XF-12" target="_UddgJi90F-jok4KW_XF-13" edge="1">
          <mxGeometry relative="1" as="geometry" />
        </mxCell>
        <mxCell id="_UddgJi90F-jok4KW_XF-61" style="edgeStyle=orthogonalEdgeStyle;rounded=0;orthogonalLoop=1;jettySize=auto;html=1;exitX=0.25;exitY=1;exitDx=0;exitDy=0;entryX=1;entryY=0.625;entryDx=0;entryDy=0;entryPerimeter=0;" parent="itmRVCsg2-wjGknnskHY-182" source="_UddgJi90F-jok4KW_XF-12" target="_UddgJi90F-jok4KW_XF-15" edge="1">
          <mxGeometry relative="1" as="geometry">
            <Array as="points">
              <mxPoint x="629.2279411764705" y="228.76510067114094" />
              <mxPoint x="602.2058823529411" y="228.76510067114094" />
              <mxPoint x="602.2058823529411" y="284.33557046979865" />
            </Array>
          </mxGeometry>
        </mxCell>
        <mxCell id="_UddgJi90F-jok4KW_XF-68" value="locates" style="rhombus;whiteSpace=wrap;html=1;dashed=1;" parent="itmRVCsg2-wjGknnskHY-182" vertex="1">
          <mxGeometry x="602.2058823529411" y="282.48322147651015" width="61.76470588235293" height="74.09395973154365" as="geometry" />
        </mxCell>
        <mxCell id="_UddgJi90F-jok4KW_XF-69" style="edgeStyle=orthogonalEdgeStyle;rounded=0;orthogonalLoop=1;jettySize=auto;html=1;exitX=1;exitY=0.5;exitDx=0;exitDy=0;entryX=0.25;entryY=0;entryDx=0;entryDy=0;endArrow=none;startFill=0;" parent="itmRVCsg2-wjGknnskHY-182" source="_UddgJi90F-jok4KW_XF-68" target="_UddgJi90F-jok4KW_XF-16" edge="1">
          <mxGeometry relative="1" as="geometry">
            <mxPoint x="658.9985294117646" y="403.3304697986578" as="targetPoint" />
            <Array as="points">
              <mxPoint x="718.0147058823529" y="319.5302013422819" />
              <mxPoint x="718.0147058823529" y="370.46979865771823" />
              <mxPoint x="548.1617647058823" y="370.46979865771823" />
            </Array>
          </mxGeometry>
        </mxCell>
        <mxCell id="_UddgJi90F-jok4KW_XF-75" value="reservers" style="rhombus;whiteSpace=wrap;html=1;" parent="itmRVCsg2-wjGknnskHY-182" vertex="1">
          <mxGeometry x="486.3970588235294" y="129.66442953020137" width="61.76470588235293" height="74.09395973154365" as="geometry" />
        </mxCell>
        <mxCell id="_UddgJi90F-jok4KW_XF-76" style="edgeStyle=orthogonalEdgeStyle;rounded=0;orthogonalLoop=1;jettySize=auto;html=1;entryX=0;entryY=0.5;entryDx=0;entryDy=0;exitX=1;exitY=0.5;exitDx=0;exitDy=0;endArrow=none;startFill=0;" parent="itmRVCsg2-wjGknnskHY-182" source="_UddgJi90F-jok4KW_XF-75" target="_UddgJi90F-jok4KW_XF-12" edge="1">
          <mxGeometry relative="1" as="geometry">
            <mxPoint x="540.4411764705882" y="152.81879194630872" as="sourcePoint" />
            <mxPoint x="617.6470588235294" y="203.75838926174495" as="targetPoint" />
            <Array as="points">
              <mxPoint x="602.2058823529411" y="166.71140939597316" />
            </Array>
          </mxGeometry>
        </mxCell>
        <mxCell id="itmRVCsg2-wjGknnskHY-11" value="" style="edgeStyle=orthogonalEdgeStyle;rounded=0;orthogonalLoop=1;jettySize=auto;html=1;" parent="itmRVCsg2-wjGknnskHY-182" source="itmRVCsg2-wjGknnskHY-1" target="itmRVCsg2-wjGknnskHY-4" edge="1">
          <mxGeometry relative="1" as="geometry" />
        </mxCell>
        <mxCell id="itmRVCsg2-wjGknnskHY-1" value="Food" style="rounded=0;whiteSpace=wrap;html=1;" parent="itmRVCsg2-wjGknnskHY-182" vertex="1">
          <mxGeometry x="787.5" y="460.30872483221475" width="92.6470588235294" height="55.57046979865772" as="geometry" />
        </mxCell>
        <mxCell id="itmRVCsg2-wjGknnskHY-2" value="Category" style="ellipse;whiteSpace=wrap;html=1;" parent="itmRVCsg2-wjGknnskHY-182" vertex="1">
          <mxGeometry x="679.4117647058823" y="599.2348993288591" width="92.6470588235294" height="74.09395973154365" as="geometry" />
        </mxCell>
        <mxCell id="itmRVCsg2-wjGknnskHY-3" value="Price" style="ellipse;whiteSpace=wrap;html=1;" parent="itmRVCsg2-wjGknnskHY-182" vertex="1">
          <mxGeometry x="887.8676470588235" y="611.2751677852349" width="92.6470588235294" height="74.09395973154365" as="geometry" />
        </mxCell>
        <mxCell id="itmRVCsg2-wjGknnskHY-4" value="Food&lt;span style=&quot;color: rgba(0, 0, 0, 0); font-family: monospace; font-size: 0px; text-align: start; text-wrap-mode: nowrap;&quot;&gt;%3CmxGraphModel%3E%3Croot%3E%3CmxCell%20id%3D%220%22%2F%3E%3CmxCell%20id%3D%221%22%20parent%3D%220%22%2F%3E%3CmxCell%20id%3D%222%22%20value%3D%22%22%20style%3D%22endArrow%3Dnone%3Bhtml%3D1%3Brounded%3D0%3B%22%20edge%3D%221%22%20parent%3D%221%22%3E%3CmxGeometry%20width%3D%2250%22%20height%3D%2250%22%20relative%3D%221%22%20as%3D%22geometry%22%3E%3CmxPoint%20x%3D%22900%22%20y%3D%22274.76%22%20as%3D%22sourcePoint%22%2F%3E%3CmxPoint%20x%3D%22980%22%20y%3D%22274%22%20as%3D%22targetPoint%22%2F%3E%3C%2FmxGeometry%3E%3C%2FmxCell%3E%3C%2Froot%3E%3C%2FmxGraphModel%3E&lt;/span&gt;&amp;nbsp;Id" style="ellipse;whiteSpace=wrap;html=1;" parent="itmRVCsg2-wjGknnskHY-182" vertex="1">
          <mxGeometry x="918.75" y="451.0469798657719" width="92.6470588235294" height="74.09395973154365" as="geometry" />
        </mxCell>
        <mxCell id="itmRVCsg2-wjGknnskHY-5" value="Food Name" style="ellipse;whiteSpace=wrap;html=1;" parent="itmRVCsg2-wjGknnskHY-182" vertex="1">
          <mxGeometry x="957.3529411764705" y="537.1812080536914" width="92.6470588235294" height="74.09395973154365" as="geometry" />
        </mxCell>
        <mxCell id="itmRVCsg2-wjGknnskHY-6" value="Qunatity" style="ellipse;whiteSpace=wrap;html=1;" parent="itmRVCsg2-wjGknnskHY-182" vertex="1">
          <mxGeometry x="679.4117647058823" y="515.8791946308725" width="92.6470588235294" height="74.09395973154365" as="geometry" />
        </mxCell>
        <mxCell id="itmRVCsg2-wjGknnskHY-7" style="edgeStyle=orthogonalEdgeStyle;rounded=0;orthogonalLoop=1;jettySize=auto;html=1;entryX=0.333;entryY=0;entryDx=0;entryDy=0;entryPerimeter=0;" parent="itmRVCsg2-wjGknnskHY-182" source="itmRVCsg2-wjGknnskHY-1" target="itmRVCsg2-wjGknnskHY-3" edge="1">
          <mxGeometry relative="1" as="geometry">
            <Array as="points">
              <mxPoint x="833.8235294117646" y="592.7516778523492" />
              <mxPoint x="918.75" y="592.7516778523492" />
            </Array>
          </mxGeometry>
        </mxCell>
        <mxCell id="itmRVCsg2-wjGknnskHY-8" style="edgeStyle=orthogonalEdgeStyle;rounded=0;orthogonalLoop=1;jettySize=auto;html=1;entryX=0.01;entryY=0.29;entryDx=0;entryDy=0;entryPerimeter=0;exitX=0.61;exitY=1.04;exitDx=0;exitDy=0;exitPerimeter=0;" parent="itmRVCsg2-wjGknnskHY-182" source="itmRVCsg2-wjGknnskHY-1" target="itmRVCsg2-wjGknnskHY-5" edge="1">
          <mxGeometry relative="1" as="geometry">
            <mxPoint x="841.5441176470588" y="525.1409395973154" as="sourcePoint" />
            <mxPoint x="856.985294117647" y="608.4966442953021" as="targetPoint" />
            <Array as="points">
              <mxPoint x="843.860294117647" y="534.4026845637584" />
              <mxPoint x="911.0294117647059" y="534.4026845637584" />
              <mxPoint x="911.0294117647059" y="558.48322147651" />
            </Array>
          </mxGeometry>
        </mxCell>
        <mxCell id="itmRVCsg2-wjGknnskHY-9" style="edgeStyle=orthogonalEdgeStyle;rounded=0;orthogonalLoop=1;jettySize=auto;html=1;entryX=1;entryY=0;entryDx=0;entryDy=0;exitX=0.61;exitY=1.04;exitDx=0;exitDy=0;exitPerimeter=0;" parent="itmRVCsg2-wjGknnskHY-182" target="itmRVCsg2-wjGknnskHY-2" edge="1">
          <mxGeometry relative="1" as="geometry">
            <mxPoint x="799.8529411764705" y="515.8791946308725" as="sourcePoint" />
            <mxPoint x="867.7941176470588" y="579.7852348993289" as="targetPoint" />
            <Array as="points">
              <mxPoint x="799.8529411764705" y="610.3489932885906" />
            </Array>
          </mxGeometry>
        </mxCell>
        <mxCell id="itmRVCsg2-wjGknnskHY-10" style="edgeStyle=orthogonalEdgeStyle;rounded=0;orthogonalLoop=1;jettySize=auto;html=1;entryX=0.59;entryY=0;entryDx=0;entryDy=0;entryPerimeter=0;" parent="itmRVCsg2-wjGknnskHY-182" source="itmRVCsg2-wjGknnskHY-1" target="itmRVCsg2-wjGknnskHY-6" edge="1">
          <mxGeometry relative="1" as="geometry">
            <Array as="points">
              <mxPoint x="734.2279411764705" y="488.09395973154363" />
            </Array>
          </mxGeometry>
        </mxCell>
        <mxCell id="itmRVCsg2-wjGknnskHY-15" value="" style="edgeStyle=orthogonalEdgeStyle;rounded=0;orthogonalLoop=1;jettySize=auto;html=1;exitX=0.5;exitY=0;exitDx=0;exitDy=0;entryX=0.9;entryY=1.013;entryDx=0;entryDy=0;entryPerimeter=0;endArrow=none;startFill=0;" parent="itmRVCsg2-wjGknnskHY-182" source="itmRVCsg2-wjGknnskHY-13" target="_UddgJi90F-jok4KW_XF-12" edge="1">
          <mxGeometry relative="1" as="geometry">
            <mxPoint x="756.6176470588234" y="324.16107382550337" as="sourcePoint" />
            <mxPoint x="687.1323529411765" y="194.49664429530202" as="targetPoint" />
            <Array as="points">
              <mxPoint x="772.0588235294117" y="238.02684563758393" />
              <mxPoint x="748.8970588235294" y="238.02684563758393" />
              <mxPoint x="748.8970588235294" y="219.503355704698" />
              <mxPoint x="699.4852941176471" y="219.503355704698" />
            </Array>
          </mxGeometry>
        </mxCell>
        <mxCell id="itmRVCsg2-wjGknnskHY-17" value="" style="edgeStyle=orthogonalEdgeStyle;rounded=0;orthogonalLoop=1;jettySize=auto;html=1;endArrow=none;startFill=0;" parent="itmRVCsg2-wjGknnskHY-182" source="itmRVCsg2-wjGknnskHY-13" target="itmRVCsg2-wjGknnskHY-1" edge="1">
          <mxGeometry relative="1" as="geometry" />
        </mxCell>
        <mxCell id="itmRVCsg2-wjGknnskHY-13" value="have" style="rhombus;whiteSpace=wrap;html=1;" parent="itmRVCsg2-wjGknnskHY-182" vertex="1">
          <mxGeometry x="741.1764705882352" y="330.64429530201346" width="61.76470588235293" height="74.09395973154365" as="geometry" />
        </mxCell>
        <mxCell id="itmRVCsg2-wjGknnskHY-141" value="" style="edgeStyle=orthogonalEdgeStyle;rounded=0;orthogonalLoop=1;jettySize=auto;html=1;" parent="itmRVCsg2-wjGknnskHY-182" source="itmRVCsg2-wjGknnskHY-52" target="itmRVCsg2-wjGknnskHY-56" edge="1">
          <mxGeometry relative="1" as="geometry" />
        </mxCell>
        <mxCell id="itmRVCsg2-wjGknnskHY-142" value="" style="edgeStyle=orthogonalEdgeStyle;rounded=0;orthogonalLoop=1;jettySize=auto;html=1;" parent="itmRVCsg2-wjGknnskHY-182" source="itmRVCsg2-wjGknnskHY-52" target="itmRVCsg2-wjGknnskHY-54" edge="1">
          <mxGeometry relative="1" as="geometry">
            <Array as="points">
              <mxPoint x="154.41176470588235" y="583.4899328859062" />
            </Array>
          </mxGeometry>
        </mxCell>
        <mxCell id="itmRVCsg2-wjGknnskHY-143" value="" style="edgeStyle=orthogonalEdgeStyle;rounded=0;orthogonalLoop=1;jettySize=auto;html=1;" parent="itmRVCsg2-wjGknnskHY-182" source="itmRVCsg2-wjGknnskHY-52" target="itmRVCsg2-wjGknnskHY-53" edge="1">
          <mxGeometry relative="1" as="geometry" />
        </mxCell>
        <mxCell id="itmRVCsg2-wjGknnskHY-144" style="edgeStyle=orthogonalEdgeStyle;rounded=0;orthogonalLoop=1;jettySize=auto;html=1;exitX=0.25;exitY=0;exitDx=0;exitDy=0;" parent="itmRVCsg2-wjGknnskHY-182" source="itmRVCsg2-wjGknnskHY-52" edge="1">
          <mxGeometry relative="1" as="geometry">
            <mxPoint x="146.69117647058823" y="481.6107382550336" as="targetPoint" />
          </mxGeometry>
        </mxCell>
        <mxCell id="itmRVCsg2-wjGknnskHY-146" style="edgeStyle=orthogonalEdgeStyle;rounded=0;orthogonalLoop=1;jettySize=auto;html=1;entryX=0.673;entryY=0.012;entryDx=0;entryDy=0;entryPerimeter=0;" parent="itmRVCsg2-wjGknnskHY-182" source="itmRVCsg2-wjGknnskHY-52" target="itmRVCsg2-wjGknnskHY-57" edge="1">
          <mxGeometry relative="1" as="geometry">
            <mxPoint x="277.94117647058823" y="611.2751677852349" as="targetPoint" />
            <Array as="points">
              <mxPoint x="277.94117647058823" y="574.2281879194633" />
            </Array>
          </mxGeometry>
        </mxCell>
        <mxCell id="itmRVCsg2-wjGknnskHY-52" value="Message" style="rounded=0;whiteSpace=wrap;html=1;dashed=1;" parent="itmRVCsg2-wjGknnskHY-182" vertex="1">
          <mxGeometry x="169.85294117647058" y="541.7287248322148" width="92.6470588235294" height="55.57046979865772" as="geometry" />
        </mxCell>
        <mxCell id="d3wWc0SfoeuosL7AhvEw-1" value="" style="edgeStyle=orthogonalEdgeStyle;rounded=0;orthogonalLoop=1;jettySize=auto;html=1;" edge="1" parent="itmRVCsg2-wjGknnskHY-182" source="itmRVCsg2-wjGknnskHY-53" target="itmRVCsg2-wjGknnskHY-54">
          <mxGeometry relative="1" as="geometry" />
        </mxCell>
        <mxCell id="itmRVCsg2-wjGknnskHY-53" value="Date Booked" style="ellipse;whiteSpace=wrap;html=1;" parent="itmRVCsg2-wjGknnskHY-182" vertex="1">
          <mxGeometry x="46.3235294117647" y="497.3557046979866" width="92.6470588235294" height="74.09395973154365" as="geometry" />
        </mxCell>
        <mxCell id="itmRVCsg2-wjGknnskHY-54" value="Time Booked" style="ellipse;whiteSpace=wrap;html=1;" parent="itmRVCsg2-wjGknnskHY-182" vertex="1">
          <mxGeometry x="108.08823529411764" y="615.9060402684563" width="92.6470588235294" height="74.09395973154365" as="geometry" />
        </mxCell>
        <mxCell id="itmRVCsg2-wjGknnskHY-55" value="Food Id" style="ellipse;whiteSpace=wrap;html=1;" parent="itmRVCsg2-wjGknnskHY-182" vertex="1">
          <mxGeometry x="77.20588235294117" y="404.73825503355704" width="92.6470588235294" height="74.09395973154365" as="geometry" />
        </mxCell>
        <mxCell id="itmRVCsg2-wjGknnskHY-56" value="Restaurant Id" style="ellipse;whiteSpace=wrap;html=1;" parent="itmRVCsg2-wjGknnskHY-182" vertex="1">
          <mxGeometry x="177.5735294117647" y="430.6711409395973" width="92.6470588235294" height="74.09395973154365" as="geometry" />
        </mxCell>
        <mxCell id="itmRVCsg2-wjGknnskHY-57" value="From" style="ellipse;whiteSpace=wrap;html=1;" parent="itmRVCsg2-wjGknnskHY-182" vertex="1">
          <mxGeometry x="216.17647058823528" y="615.9060402684563" width="92.6470588235294" height="74.09395973154365" as="geometry" />
        </mxCell>
        <mxCell id="itmRVCsg2-wjGknnskHY-58" value="" style="endArrow=none;dashed=1;html=1;rounded=0;" parent="itmRVCsg2-wjGknnskHY-182" edge="1">
          <mxGeometry width="50" height="50" relative="1" as="geometry">
            <mxPoint x="196.875" y="481.1476510067114" as="sourcePoint" />
            <mxPoint x="250.91911764705878" y="481.1476510067114" as="targetPoint" />
          </mxGeometry>
        </mxCell>
        <mxCell id="itmRVCsg2-wjGknnskHY-59" value="" style="endArrow=none;dashed=1;html=1;rounded=0;" parent="itmRVCsg2-wjGknnskHY-182" edge="1">
          <mxGeometry width="50" height="50" relative="1" as="geometry">
            <mxPoint x="102.29779411764704" y="451.97315436241615" as="sourcePoint" />
            <mxPoint x="144.7610294117647" y="451.97315436241615" as="targetPoint" />
          </mxGeometry>
        </mxCell>
        <mxCell id="itmRVCsg2-wjGknnskHY-152" style="edgeStyle=orthogonalEdgeStyle;rounded=0;orthogonalLoop=1;jettySize=auto;html=1;entryX=1;entryY=0.25;entryDx=0;entryDy=0;endArrow=none;startFill=0;exitX=0.5;exitY=1;exitDx=0;exitDy=0;" parent="itmRVCsg2-wjGknnskHY-182" source="itmRVCsg2-wjGknnskHY-60" target="itmRVCsg2-wjGknnskHY-52" edge="1">
          <mxGeometry relative="1" as="geometry">
            <mxPoint x="470.9558823529411" y="398.25503355704694" as="sourcePoint" />
            <Array as="points">
              <mxPoint x="470.9558823529411" y="416.77852348993287" />
              <mxPoint x="343.56617647058823" y="416.77852348993287" />
              <mxPoint x="343.56617647058823" y="516.8053691275169" />
              <mxPoint x="277.94117647058823" y="516.8053691275169" />
              <mxPoint x="277.94117647058823" y="555.7046979865773" />
            </Array>
          </mxGeometry>
        </mxCell>
        <mxCell id="itmRVCsg2-wjGknnskHY-60" value="recieves" style="rhombus;whiteSpace=wrap;html=1;dashed=1;" parent="itmRVCsg2-wjGknnskHY-182" vertex="1">
          <mxGeometry x="440.0735294117647" y="321.3825503355705" width="61.76470588235293" height="74.09395973154365" as="geometry" />
        </mxCell>
        <mxCell id="itmRVCsg2-wjGknnskHY-147" value="Discount" style="ellipse;whiteSpace=wrap;html=1;" parent="itmRVCsg2-wjGknnskHY-182" vertex="1">
          <mxGeometry x="787.5" y="611.2751677852349" width="92.6470588235294" height="74.09395973154365" as="geometry" />
        </mxCell>
        <mxCell id="itmRVCsg2-wjGknnskHY-148" style="edgeStyle=orthogonalEdgeStyle;rounded=0;orthogonalLoop=1;jettySize=auto;html=1;exitX=0.25;exitY=1;exitDx=0;exitDy=0;entryX=0.308;entryY=0.056;entryDx=0;entryDy=0;entryPerimeter=0;" parent="itmRVCsg2-wjGknnskHY-182" source="itmRVCsg2-wjGknnskHY-1" target="itmRVCsg2-wjGknnskHY-147" edge="1">
          <mxGeometry relative="1" as="geometry" />
        </mxCell>
        <mxCell id="itmRVCsg2-wjGknnskHY-149" value="Membership" style="ellipse;whiteSpace=wrap;html=1;" parent="itmRVCsg2-wjGknnskHY-182" vertex="1">
          <mxGeometry x="231.61764705882354" y="157.4496644295302" width="92.6470588235294" height="74.09395973154365" as="geometry" />
        </mxCell>
        <mxCell id="itmRVCsg2-wjGknnskHY-153" value="" style="edgeStyle=orthogonalEdgeStyle;rounded=0;orthogonalLoop=1;jettySize=auto;html=1;" parent="itmRVCsg2-wjGknnskHY-182" source="itmRVCsg2-wjGknnskHY-158" target="itmRVCsg2-wjGknnskHY-162" edge="1">
          <mxGeometry relative="1" as="geometry">
            <Array as="points">
              <mxPoint x="154.41176470588235" y="129.66442953020137" />
              <mxPoint x="154.41176470588235" y="129.66442953020137" />
            </Array>
          </mxGeometry>
        </mxCell>
        <mxCell id="itmRVCsg2-wjGknnskHY-154" value="" style="edgeStyle=orthogonalEdgeStyle;rounded=0;orthogonalLoop=1;jettySize=auto;html=1;" parent="itmRVCsg2-wjGknnskHY-182" source="itmRVCsg2-wjGknnskHY-158" target="itmRVCsg2-wjGknnskHY-160" edge="1">
          <mxGeometry relative="1" as="geometry">
            <Array as="points">
              <mxPoint x="84.92647058823529" y="213.0201342281879" />
            </Array>
          </mxGeometry>
        </mxCell>
        <mxCell id="itmRVCsg2-wjGknnskHY-155" value="" style="edgeStyle=orthogonalEdgeStyle;rounded=0;orthogonalLoop=1;jettySize=auto;html=1;" parent="itmRVCsg2-wjGknnskHY-182" source="itmRVCsg2-wjGknnskHY-158" target="itmRVCsg2-wjGknnskHY-159" edge="1">
          <mxGeometry relative="1" as="geometry">
            <Array as="points">
              <mxPoint x="138.97058823529412" y="296.3758389261746" />
              <mxPoint x="61.76470588235293" y="296.3758389261746" />
            </Array>
          </mxGeometry>
        </mxCell>
        <mxCell id="itmRVCsg2-wjGknnskHY-156" style="edgeStyle=orthogonalEdgeStyle;rounded=0;orthogonalLoop=1;jettySize=auto;html=1;exitX=0.25;exitY=0;exitDx=0;exitDy=0;entryX=0.5;entryY=1;entryDx=0;entryDy=0;" parent="itmRVCsg2-wjGknnskHY-182" source="itmRVCsg2-wjGknnskHY-158" target="itmRVCsg2-wjGknnskHY-161" edge="1">
          <mxGeometry relative="1" as="geometry">
            <mxPoint x="77.20588235294117" y="111.14093959731544" as="targetPoint" />
            <Array as="points">
              <mxPoint x="146.69117647058823" y="175.97315436241615" />
              <mxPoint x="46.3235294117647" y="175.97315436241615" />
            </Array>
          </mxGeometry>
        </mxCell>
        <mxCell id="itmRVCsg2-wjGknnskHY-157" style="edgeStyle=orthogonalEdgeStyle;rounded=0;orthogonalLoop=1;jettySize=auto;html=1;entryX=0.673;entryY=0.012;entryDx=0;entryDy=0;entryPerimeter=0;exitX=1;exitY=0.75;exitDx=0;exitDy=0;" parent="itmRVCsg2-wjGknnskHY-182" source="itmRVCsg2-wjGknnskHY-158" target="itmRVCsg2-wjGknnskHY-163" edge="1">
          <mxGeometry relative="1" as="geometry">
            <mxPoint x="208.45588235294116" y="240.8053691275168" as="targetPoint" />
            <mxPoint x="231.61764705882354" y="259.32885906040275" as="sourcePoint" />
            <Array as="points">
              <mxPoint x="216.17647058823528" y="229.69127516778525" />
              <mxPoint x="247.0588235294117" y="229.69127516778525" />
              <mxPoint x="247.0588235294117" y="277.8523489932887" />
              <mxPoint x="278.7132352941176" y="277.8523489932887" />
            </Array>
          </mxGeometry>
        </mxCell>
        <mxCell id="itmRVCsg2-wjGknnskHY-167" style="edgeStyle=orthogonalEdgeStyle;rounded=0;orthogonalLoop=1;jettySize=auto;html=1;exitX=0.75;exitY=1;exitDx=0;exitDy=0;entryX=0.5;entryY=0;entryDx=0;entryDy=0;" parent="itmRVCsg2-wjGknnskHY-182" source="itmRVCsg2-wjGknnskHY-158" target="itmRVCsg2-wjGknnskHY-166" edge="1">
          <mxGeometry relative="1" as="geometry" />
        </mxCell>
        <mxCell id="itmRVCsg2-wjGknnskHY-158" value="Payment" style="rounded=0;whiteSpace=wrap;html=1;" parent="itmRVCsg2-wjGknnskHY-182" vertex="1">
          <mxGeometry x="123.52941176470586" y="192.64429530201338" width="92.6470588235294" height="55.57046979865772" as="geometry" />
        </mxCell>
        <mxCell id="itmRVCsg2-wjGknnskHY-159" value="Date Booked" style="ellipse;whiteSpace=wrap;html=1;" parent="itmRVCsg2-wjGknnskHY-182" vertex="1">
          <mxGeometry x="15.441176470588232" y="321.3825503355705" width="92.6470588235294" height="74.09395973154365" as="geometry" />
        </mxCell>
        <mxCell id="itmRVCsg2-wjGknnskHY-160" value="Time Booked" style="ellipse;whiteSpace=wrap;html=1;" parent="itmRVCsg2-wjGknnskHY-182" vertex="1">
          <mxGeometry x="7.720588235294116" y="203.75838926174495" width="92.6470588235294" height="74.09395973154365" as="geometry" />
        </mxCell>
        <mxCell id="itmRVCsg2-wjGknnskHY-161" value="Customer Id" style="ellipse;whiteSpace=wrap;html=1;" parent="itmRVCsg2-wjGknnskHY-182" vertex="1">
          <mxGeometry y="64.83221476510069" width="92.6470588235294" height="74.09395973154365" as="geometry" />
        </mxCell>
        <mxCell id="itmRVCsg2-wjGknnskHY-162" value="Restaurant Id" style="ellipse;whiteSpace=wrap;html=1;" parent="itmRVCsg2-wjGknnskHY-182" vertex="1">
          <mxGeometry x="84.92647058823529" width="92.6470588235294" height="74.09395973154365" as="geometry" />
        </mxCell>
        <mxCell id="itmRVCsg2-wjGknnskHY-163" value="Payment Id" style="ellipse;whiteSpace=wrap;html=1;" parent="itmRVCsg2-wjGknnskHY-182" vertex="1">
          <mxGeometry x="216.17647058823528" y="301.006711409396" width="92.6470588235294" height="74.09395973154365" as="geometry" />
        </mxCell>
        <mxCell id="itmRVCsg2-wjGknnskHY-164" value="" style="endArrow=none;dashed=1;html=1;rounded=0;" parent="itmRVCsg2-wjGknnskHY-182" edge="1">
          <mxGeometry width="50" height="50" relative="1" as="geometry">
            <mxPoint x="104.22794117647058" y="50.4765100671141" as="sourcePoint" />
            <mxPoint x="158.2720588235294" y="50.4765100671141" as="targetPoint" />
          </mxGeometry>
        </mxCell>
        <mxCell id="itmRVCsg2-wjGknnskHY-165" value="" style="endArrow=none;dashed=1;html=1;rounded=0;" parent="itmRVCsg2-wjGknnskHY-182" edge="1">
          <mxGeometry width="50" height="50" relative="1" as="geometry">
            <mxPoint x="25.09191176470588" y="112.06711409395973" as="sourcePoint" />
            <mxPoint x="67.55514705882352" y="112.06711409395973" as="targetPoint" />
          </mxGeometry>
        </mxCell>
        <mxCell id="itmRVCsg2-wjGknnskHY-166" value="Total" style="ellipse;whiteSpace=wrap;html=1;" parent="itmRVCsg2-wjGknnskHY-182" vertex="1">
          <mxGeometry x="115.80882352941177" y="301.006711409396" width="92.6470588235294" height="74.09395973154365" as="geometry" />
        </mxCell>
        <mxCell id="itmRVCsg2-wjGknnskHY-168" value="" style="endArrow=none;html=1;rounded=0;" parent="itmRVCsg2-wjGknnskHY-182" edge="1">
          <mxGeometry width="50" height="50" relative="1" as="geometry">
            <mxPoint x="235.47794117647055" y="348.241610738255" as="sourcePoint" />
            <mxPoint x="289.5220588235294" y="348.241610738255" as="targetPoint" />
          </mxGeometry>
        </mxCell>
        <mxCell id="itmRVCsg2-wjGknnskHY-170" value="" style="endArrow=none;html=1;rounded=0;" parent="itmRVCsg2-wjGknnskHY-182" edge="1">
          <mxGeometry width="50" height="50" relative="1" as="geometry">
            <mxPoint x="320.40441176470586" y="286.18791946308727" as="sourcePoint" />
            <mxPoint x="362.86764705882354" y="286.18791946308727" as="targetPoint" />
          </mxGeometry>
        </mxCell>
        <mxCell id="itmRVCsg2-wjGknnskHY-171" value="" style="endArrow=none;html=1;rounded=0;" parent="itmRVCsg2-wjGknnskHY-182" edge="1">
          <mxGeometry width="50" height="50" relative="1" as="geometry">
            <mxPoint x="602.2058823529411" y="59.97906040268456" as="sourcePoint" />
            <mxPoint x="663.9705882352941" y="59.2751677852349" as="targetPoint" />
          </mxGeometry>
        </mxCell>
        <mxCell id="itmRVCsg2-wjGknnskHY-173" value="" style="endArrow=none;html=1;rounded=0;" parent="itmRVCsg2-wjGknnskHY-182" edge="1">
          <mxGeometry width="50" height="50" relative="1" as="geometry">
            <mxPoint x="945.7720588235293" y="495.6330201342281" as="sourcePoint" />
            <mxPoint x="984.375" y="494.9291275167787" as="targetPoint" />
          </mxGeometry>
        </mxCell>
        <mxCell id="itmRVCsg2-wjGknnskHY-175" value="" style="endArrow=none;html=1;rounded=0;" parent="itmRVCsg2-wjGknnskHY-182" edge="1">
          <mxGeometry width="50" height="50" relative="1" as="geometry">
            <mxPoint x="961.2132352941176" y="162.20093959731545" as="sourcePoint" />
            <mxPoint x="999.8161764705882" y="161.49704697986576" as="targetPoint" />
          </mxGeometry>
        </mxCell>
        <mxCell id="itmRVCsg2-wjGknnskHY-179" value="" style="edgeStyle=orthogonalEdgeStyle;rounded=0;orthogonalLoop=1;jettySize=auto;html=1;endArrow=none;startFill=0;exitX=0.6;exitY=-0.042;exitDx=0;exitDy=0;entryX=0;entryY=0.5;entryDx=0;entryDy=0;exitPerimeter=0;" parent="itmRVCsg2-wjGknnskHY-182" source="itmRVCsg2-wjGknnskHY-158" target="itmRVCsg2-wjGknnskHY-180" edge="1">
          <mxGeometry relative="1" as="geometry">
            <mxPoint x="169.8529411764706" y="173.67624161073823" as="sourcePoint" />
            <Array as="points">
              <mxPoint x="177.5735294117647" y="190.79194630872482" />
              <mxPoint x="177.5735294117647" y="111.14093959731544" />
            </Array>
          </mxGeometry>
        </mxCell>
        <mxCell id="itmRVCsg2-wjGknnskHY-180" value="pays" style="rhombus;whiteSpace=wrap;html=1;" parent="itmRVCsg2-wjGknnskHY-182" vertex="1">
          <mxGeometry x="183.00882352941176" y="74.09395973154365" width="61.76470588235293" height="74.09395973154365" as="geometry" />
        </mxCell>
        <mxCell id="itmRVCsg2-wjGknnskHY-181" style="edgeStyle=orthogonalEdgeStyle;rounded=0;orthogonalLoop=1;jettySize=auto;html=1;entryX=0;entryY=0.25;entryDx=0;entryDy=0;exitX=1;exitY=0.5;exitDx=0;exitDy=0;endArrow=none;startFill=0;" parent="itmRVCsg2-wjGknnskHY-182" source="itmRVCsg2-wjGknnskHY-180" target="_UddgJi90F-jok4KW_XF-1" edge="1">
          <mxGeometry relative="1" as="geometry">
            <mxPoint x="237.05294117647057" y="97.24832214765101" as="sourcePoint" />
            <mxPoint x="345.1411764705882" y="134.29530201342286" as="targetPoint" />
            <Array as="points">
              <mxPoint x="298.7867647058823" y="111.14093959731544" />
              <mxPoint x="298.7867647058823" y="148.1879194630873" />
              <mxPoint x="355.1470588235294" y="148.1879194630873" />
            </Array>
          </mxGeometry>
        </mxCell>
        <mxCell id="d3wWc0SfoeuosL7AhvEw-3" value="&lt;font style=&quot;font-size: 14px;&quot;&gt;&lt;b&gt;Fig 1.7: &lt;/b&gt;RSBS-PFO-MPF Entity Relationship Diagram&lt;/font&gt;" style="text;html=1;align=center;verticalAlign=middle;resizable=0;points=[];autosize=1;strokeColor=none;fillColor=none;" vertex="1" parent="1">
          <mxGeometry x="425" y="810" width="360" height="30" as="geometry" />
        </mxCell>
      </root>
    </mxGraphModel>
  </diagram>
</mxfile>
